<?xml version="1.0" encoding="UTF-8"?>
<!DOCTYPE svg PUBLIC "-//W3C//DTD SVG 1.1//EN" "http://www.w3.org/Graphics/SVG/1.1/DTD/svg11.dtd">
<!-- Creator: CorelDRAW X8 -->
<svg xmlns="http://www.w3.org/2000/svg" xml:space="preserve" width="8.5in" height="11in" version="1.1" style="shape-rendering:geometricPrecision; text-rendering:geometricPrecision; image-rendering:optimizeQuality; fill-rule:evenodd; clip-rule:evenodd"
viewBox="0 0 8500 11000"
 xmlns:xlink="http://www.w3.org/1999/xlink">
 <g id="Layer_x0020_1">
  <metadata id="CorelCorpID_0Corel-Layer"/>
  <path fill="white" d="M3902 1778c-1990,0 -3605,1614 -3605,3605 0,1593 1033,2944 2466,3421 180,33 238,-79 238,-174l0 -671c-1003,218 -1212,-425 -1212,-425 -164,-417 -400,-528 -400,-528 -327,-224 25,-219 25,-219 362,25 552,372 552,372 322,551 844,391 1049,299 32,-233 126,-392 229,-482 -800,-91 -1642,-400 -1642,-1781 0,-394 141,-716 371,-968 -37,-91 -161,-458 35,-954 0,0 303,-97 992,369 287,-79 596,-119 902,-121 306,2 615,42 903,121 688,-466 990,-369 990,-369 197,497 73,863 36,954 231,252 371,574 371,968 0,1384 -843,1689 -1646,1778 129,112 247,332 247,668l0 989c0,96 58,209 241,173 1431,-477 2463,-1828 2463,-3420 0,-1991 -1614,-3605 -3605,-3605l0 0z"/>
 </g>
</svg>
